<svg width="121" height="137" viewBox="0 0 121 137" fill="none" xmlns="http://www.w3.org/2000/svg">
<path d="M0.331055 57H98.3311L93.8311 96.5L79.8311 134.5H21.3311L7.83105 105L0.331055 57Z" fill="#4E3017"/>
<path d="M48.8111 28.8541C46.6672 30.3426 43.7358 32.3795 43.7358 36.4147C43.7358 37.6716 44.7549 38.6906 46.0118 38.6906C47.2686 38.6906 48.2877 37.6716 48.2877 36.4147C48.2877 34.9081 49.198 34.1388 51.4057 32.5935C53.5496 31.105 56.481 29.0681 56.481 25.0328C56.481 20.9976 53.5496 18.9607 51.4057 17.4722C49.198 15.9314 48.2877 15.1554 48.2877 13.6555C48.2877 12.1557 49.198 11.3796 51.4057 9.83653C53.5473 8.3458 56.481 6.31113 56.481 2.27592C56.481 1.01904 55.4619 0 54.2051 0C52.9482 0 51.9291 1.01904 51.9291 2.27592C51.9291 3.7803 51.0188 4.55184 48.8111 6.09491C46.6672 7.58109 43.7358 9.61576 43.7358 13.6555C43.7358 17.6953 46.6672 19.7277 48.8111 21.2139C51.0188 22.7592 51.9291 23.5262 51.9291 25.0351C51.9291 26.5441 51.0188 27.311 48.8111 28.8541Z" fill="#1B1B1B"/>
<path d="M67.0209 29.9966C64.5621 31.2273 62.9411 33.6708 62.7627 36.4147C62.7627 37.6716 63.7817 38.6906 65.0386 38.6906C66.2955 38.6906 67.3145 37.6716 67.3145 36.4147C67.3145 35.4247 67.945 34.8944 69.6132 33.7382C72.0741 32.5053 73.6945 30.0578 73.8692 27.311C73.6931 24.566 72.0726 22.1205 69.6132 20.8884C67.945 19.7277 67.3145 19.1951 67.3145 18.2028C67.3145 17.2105 67.945 16.6779 69.6132 15.5172C72.0701 14.2865 73.69 11.8456 73.8692 9.10368C73.8692 7.8468 72.8501 6.82776 71.5933 6.82776C70.3364 6.82776 69.3173 7.8468 69.3173 9.10368C69.3173 10.0983 68.6869 10.6285 67.0187 11.7893C64.5607 13.0205 62.9405 15.4637 62.7627 18.2074C62.9382 20.9533 64.5587 23.3996 67.0187 24.6323C68.6869 25.7907 69.3173 26.3233 69.3173 27.3156C69.3173 28.3079 68.6869 28.8405 67.0209 29.9966Z" fill="#1B1B1B"/>
<path d="M30.6059 29.9966C28.1471 31.2273 26.526 33.6708 26.3477 36.4147C26.3477 37.6716 27.3667 38.6906 28.6236 38.6906C29.8805 38.6906 30.8995 37.6716 30.8995 36.4147C30.8995 35.4247 31.5299 34.8944 33.1982 33.7382C35.659 32.5053 37.2795 30.0578 37.4541 27.311C37.278 24.566 35.6576 22.1205 33.1982 20.8884C31.5299 19.7277 30.8995 19.1951 30.8995 18.2028C30.8995 17.2105 31.5299 16.6779 33.1982 15.5172C35.655 14.2865 37.2749 11.8456 37.4541 9.10368C37.4541 7.8468 36.4351 6.82776 35.1782 6.82776C33.9214 6.82776 32.9023 7.8468 32.9023 9.10368C32.9023 10.0983 32.2719 10.6285 30.6036 11.7893C28.1456 13.0205 26.5255 15.4637 26.3477 18.2074C26.5232 20.9533 28.1436 23.3996 30.6036 24.6323C32.2719 25.7907 32.9023 26.3233 32.9023 27.3156C32.9023 28.3079 32.2719 28.8405 30.6059 29.9966Z" fill="#1B1B1B"/>
<path d="M97.9027 43.2424H2.74643C1.55157 43.2393 0.557849 44.1605 0.470511 45.3522C0.186021 49.3624 0.0380859 53.6297 0.0380859 58.0359C0.0380859 88.9156 7.32103 117.176 20.0116 135.572C20.4369 136.188 21.1381 136.556 21.8869 136.555H78.3298C79.0785 136.556 79.7798 136.188 80.2051 135.572C88.2823 123.874 94.3977 107.289 97.5749 88.7404C97.6842 88.7404 97.7911 88.7608 97.9027 88.7608C110.472 88.7608 120.662 78.5713 120.662 66.0016C120.662 53.432 110.472 43.2424 97.9027 43.2424ZM93.4487 85.9888C90.5674 104.194 84.7865 120.471 77.1235 132.003H23.0932C11.4905 114.549 4.58993 87.0243 4.58993 58.0359C4.58993 54.506 4.68779 51.0716 4.87897 47.7943H95.3127C95.3627 48.6591 95.4128 49.524 95.4492 50.4093C95.4765 51.0102 95.5084 51.5996 95.5266 52.2096C95.5881 54.1191 95.6267 56.0581 95.6267 58.0359C95.6398 67.3965 94.9115 76.7434 93.4487 85.9888ZM98.326 84.209C98.4489 83.3555 98.5399 82.4861 98.6514 81.6281C98.7721 80.6859 98.8995 79.7505 99.0065 78.8014C99.1612 77.4359 99.2887 76.0407 99.4139 74.6524C99.4935 73.7534 99.5846 72.859 99.6415 71.9555C99.7575 70.4147 99.8349 68.8648 99.9123 67.3126C99.9487 66.5501 100.003 65.7945 100.033 65.0367C100.13 62.7092 100.179 60.3756 100.179 58.0359C100.179 56.0263 100.138 54.0599 100.078 52.1185C100.058 51.5245 100.028 50.9487 100.006 50.3615C99.9715 49.5422 99.9487 48.7069 99.9032 47.9035C109.901 48.9834 117.13 57.9637 116.05 67.9609C115.067 77.0626 107.478 84.0187 98.326 84.209Z" fill="#1B1B1B"/>
</svg>
