<svg width="228" height="257" viewBox="0 0 228 257" fill="none" xmlns="http://www.w3.org/2000/svg">
<path d="M0.0664062 107H185.066L169.566 209H18.5664L0.0664062 107Z" fill="#C8E6E5"/>
<path d="M17.0664 207H171.066L150.408 252L37.4567 250.684L17.0664 207Z" fill="#B39173"/>
<path d="M91.8585 54.3041C87.8236 57.1054 82.3066 60.939 82.3066 68.5333C82.3066 70.8988 84.2245 72.8167 86.59 72.8167C88.9554 72.8167 90.8733 70.8988 90.8733 68.5333C90.8733 65.6978 92.5866 64.25 96.7415 61.3416C100.776 58.5403 106.293 54.7067 106.293 47.1124C106.293 39.518 100.776 35.6844 96.7415 32.8831C92.5866 29.9833 90.8733 28.5227 90.8733 25.7C90.8733 22.8773 92.5866 21.4167 96.7415 18.5126C100.772 15.707 106.293 11.8777 106.293 4.28333C106.293 1.91786 104.375 0 102.01 0C99.6445 0 97.7266 1.91786 97.7266 4.28333C97.7266 7.11462 96.0133 8.56667 91.8585 11.4708C87.8236 14.2678 82.3066 18.0971 82.3066 25.7C82.3066 33.3029 87.8236 37.1279 91.8585 39.9249C96.0133 42.8333 97.7266 44.2768 97.7266 47.1167C97.7266 49.9565 96.0133 51.4 91.8585 54.3041Z" fill="#1B1B1B"/>
<path d="M126.129 56.4543C121.502 58.7705 118.451 63.3692 118.115 68.5333C118.115 70.8988 120.033 72.8166 122.399 72.8166C124.764 72.8166 126.682 70.8988 126.682 68.5333C126.682 66.6701 127.868 65.672 131.008 63.4961C135.639 61.1756 138.689 56.5694 139.018 51.4C138.686 46.2337 135.637 41.6313 131.008 39.3124C127.868 37.1279 126.682 36.1256 126.682 34.2581C126.682 32.3905 127.868 31.3882 131.008 29.2037C135.632 26.8875 138.681 22.2937 139.018 17.1333C139.018 14.7678 137.1 12.85 134.735 12.85C132.369 12.85 130.451 14.7678 130.451 17.1333C130.451 19.0051 129.265 20.0031 126.125 22.1876C121.499 24.5049 118.45 29.1031 118.115 34.2666C118.446 39.4345 121.495 44.0385 126.125 46.3585C129.265 48.5387 130.451 49.541 130.451 51.4085C130.451 53.2761 129.265 54.2784 126.129 56.4543Z" fill="#1B1B1B"/>
<path d="M57.5957 56.4543C52.9681 58.7705 49.9172 63.3692 49.5815 68.5333C49.5815 70.8988 51.4994 72.8166 53.8649 72.8166C56.2303 72.8166 58.1482 70.8988 58.1482 68.5333C58.1482 66.6701 59.3347 65.672 62.4744 63.4961C67.1057 61.1756 70.1555 56.5694 70.4842 51.4C70.1528 46.2337 67.1031 41.6313 62.4744 39.3124C59.3347 37.1279 58.1482 36.1256 58.1482 34.2581C58.1482 32.3905 59.3347 31.3882 62.4744 29.2037C67.0982 26.8875 70.1469 22.2937 70.4842 17.1333C70.4842 14.7678 68.5663 12.85 66.2009 12.85C63.8354 12.85 61.9175 14.7678 61.9175 17.1333C61.9175 19.0051 60.7311 20.0031 57.5914 22.1876C52.9654 24.5049 49.9162 29.1031 49.5815 34.2666C49.9119 39.4345 52.9616 44.0385 57.5914 46.3585C60.7311 48.5387 61.9175 49.541 61.9175 51.4085C61.9175 53.2761 60.7311 54.2784 57.5957 56.4543Z" fill="#1B1B1B"/>
<path d="M184.25 81.3833H5.16357C2.91482 81.3774 1.04461 83.1111 0.88024 85.354C0.344823 92.9012 0.0664062 100.932 0.0664062 109.225C0.0664062 167.341 13.7731 220.527 37.6569 255.15C38.4574 256.309 39.7772 257.002 41.1864 257H147.413C148.822 257.002 150.142 256.309 150.943 255.15C166.144 233.133 177.653 201.921 183.633 167.011C183.839 167.011 184.04 167.05 184.25 167.05C207.906 167.05 227.083 147.873 227.083 124.217C227.083 100.56 207.906 81.3833 184.25 81.3833ZM175.867 161.833C170.445 196.095 159.565 226.73 145.143 248.433H43.4566C21.6201 215.584 8.63307 163.782 8.63307 109.225C8.63307 102.582 8.81726 96.118 9.17706 89.95H179.375C179.47 91.5776 179.564 93.2053 179.632 94.8715C179.684 96.0023 179.744 97.1117 179.778 98.2597C179.894 101.853 179.966 105.503 179.966 109.225C179.991 126.842 178.62 144.433 175.867 161.833ZM185.046 158.483C185.278 156.877 185.449 155.241 185.659 153.626C185.886 151.853 186.126 150.092 186.327 148.306C186.618 145.736 186.858 143.11 187.094 140.498C187.244 138.806 187.415 137.122 187.522 135.422C187.741 132.522 187.886 129.605 188.032 126.684C188.1 125.249 188.203 123.827 188.259 122.401C188.442 118.02 188.533 113.628 188.533 109.225C188.533 105.443 188.456 101.742 188.345 98.0883C188.306 96.9704 188.25 95.8867 188.208 94.7816C188.143 93.2396 188.1 91.6676 188.015 90.1556C206.83 92.188 220.435 109.089 218.403 127.904C216.552 145.034 202.271 158.125 185.046 158.483Z" fill="#1B1B1B"/>
</svg>
