<svg width="232" height="257" viewBox="0 0 232 257" fill="none" xmlns="http://www.w3.org/2000/svg">
<path d="M4.06641 107H189.066L173.566 209H22.5664L4.06641 107Z" fill="#C8E6E5"/>
<path d="M21.0664 207H175.066L154.408 252L41.4567 250.684L21.0664 207Z" fill="#B39173"/>
<path d="M95.8582 54.3041C91.8233 57.1054 86.3064 60.939 86.3064 68.5333C86.3064 70.8988 88.2243 72.8167 90.5897 72.8167C92.9552 72.8167 94.8731 70.8988 94.8731 68.5333C94.8731 65.6978 96.5864 64.25 100.741 61.3416C104.776 58.5403 110.293 54.7067 110.293 47.1124C110.293 39.518 104.776 35.6844 100.741 32.8831C96.5864 29.9833 94.8731 28.5227 94.8731 25.7C94.8731 22.8773 96.5864 21.4167 100.741 18.5126C104.772 15.707 110.293 11.8777 110.293 4.28333C110.293 1.91786 108.375 0 106.01 0C103.644 0 101.726 1.91786 101.726 4.28333C101.726 7.11462 100.013 8.56667 95.8582 11.4708C91.8233 14.2678 86.3064 18.0971 86.3064 25.7C86.3064 33.3029 91.8233 37.1279 95.8582 39.9249C100.013 42.8333 101.726 44.2768 101.726 47.1167C101.726 49.9565 100.013 51.4 95.8582 54.3041Z" fill="#1B1B1B"/>
<path d="M130.129 56.4543C125.502 58.7706 122.451 63.3692 122.115 68.5333C122.115 70.8988 124.033 72.8167 126.398 72.8167C128.764 72.8167 130.682 70.8988 130.682 68.5333C130.682 66.6701 131.868 65.6721 135.008 63.4961C139.639 61.1756 142.689 56.5695 143.018 51.4C142.686 46.2338 139.637 41.6313 135.008 39.3124C131.868 37.1279 130.682 36.1256 130.682 34.2581C130.682 32.3906 131.868 31.3883 135.008 29.2038C139.632 26.8876 142.68 22.2937 143.018 17.1333C143.018 14.7679 141.1 12.85 138.734 12.85C136.369 12.85 134.451 14.7679 134.451 17.1333C134.451 19.0052 133.265 20.0032 130.125 22.1877C125.499 24.505 122.45 29.1031 122.115 34.2667C122.445 39.4345 125.495 44.0386 130.125 46.3585C133.265 48.5387 134.451 49.541 134.451 51.4086C134.451 53.2761 133.265 54.2784 130.129 56.4543Z" fill="#1B1B1B"/>
<path d="M61.5959 56.4543C56.9683 58.7706 53.9175 63.3692 53.5818 68.5333C53.5818 70.8988 55.4996 72.8167 57.8651 72.8167C60.2306 72.8167 62.1484 70.8988 62.1484 68.5333C62.1484 66.6701 63.3349 65.6721 66.4746 63.4961C71.106 61.1756 74.1557 56.5695 74.4845 51.4C74.153 46.2338 71.1033 41.6313 66.4746 39.3124C63.3349 37.1279 62.1484 36.1256 62.1484 34.2581C62.1484 32.3906 63.3349 31.3883 66.4746 29.2038C71.0985 26.8876 74.1471 22.2937 74.4845 17.1333C74.4845 14.7679 72.5666 12.85 70.2011 12.85C67.8356 12.85 65.9178 14.7679 65.9178 17.1333C65.9178 19.0052 64.7313 20.0032 61.5916 22.1877C56.9656 24.505 53.9164 29.1031 53.5818 34.2667C53.9121 39.4345 56.9619 44.0386 61.5916 46.3585C64.7313 48.5387 65.9178 49.541 65.9178 51.4086C65.9178 53.2761 64.7313 54.2784 61.5959 56.4543Z" fill="#1B1B1B"/>
<path d="M188.25 81.3833H9.16357C6.91482 81.3775 5.04461 83.1111 4.88024 85.354C4.34482 92.9012 4.06641 100.932 4.06641 109.225C4.06641 167.341 17.7731 220.527 41.6569 255.15C42.4574 256.309 43.7772 257.002 45.1864 257H151.413C152.822 257.002 154.142 256.309 154.943 255.15C170.144 233.133 181.653 201.921 187.633 167.011C187.839 167.011 188.04 167.05 188.25 167.05C211.906 167.05 231.083 147.873 231.083 124.217C231.083 100.56 211.906 81.3833 188.25 81.3833ZM179.867 161.833C174.445 196.095 163.565 226.73 149.143 248.433H47.4566C25.6201 215.584 12.6331 163.782 12.6331 109.225C12.6331 102.582 12.8173 96.118 13.1771 89.95H183.375C183.47 91.5777 183.564 93.2053 183.632 94.8716C183.684 96.0024 183.744 97.1117 183.778 98.2597C183.894 101.853 183.966 105.503 183.966 109.225C183.991 126.842 182.62 144.433 179.867 161.833ZM189.046 158.483C189.278 156.877 189.449 155.241 189.659 153.626C189.886 151.853 190.126 150.092 190.327 148.306C190.618 145.736 190.858 143.11 191.094 140.498C191.244 138.806 191.415 137.122 191.522 135.422C191.741 132.522 191.886 129.605 192.032 126.684C192.1 125.249 192.203 123.827 192.259 122.401C192.442 118.02 192.533 113.628 192.533 109.225C192.533 105.443 192.456 101.742 192.345 98.0883C192.306 96.9704 192.25 95.8867 192.208 94.7816C192.143 93.2396 192.1 91.6676 192.015 90.1556C210.83 92.1881 224.435 109.089 222.403 127.904C220.552 145.034 206.271 158.125 189.046 158.483Z" fill="#1B1B1B"/>
</svg>
