<svg width="233" height="257" viewBox="0 0 233 257" fill="none" xmlns="http://www.w3.org/2000/svg">
<path opacity="0.3" d="M12 84H188L188.316 87.2188C193.659 141.592 183.261 196.355 158.36 244.985L154 253.5H47V253.5C16.5817 203.666 4.09455 144.938 11.6058 87.0388L12 84Z" fill="#1B1B1B"/>
<path d="M5.55115 107.275H189.989L181.52 181.615L155.172 253.132H45.0736L19.6663 197.612L5.55115 107.275Z" fill="#4E3017"/>
<path d="M96.7919 54.3041C92.757 57.1054 87.2401 60.939 87.2401 68.5333C87.2401 70.8988 89.158 72.8167 91.5234 72.8167C93.8889 72.8167 95.8068 70.8988 95.8068 68.5333C95.8068 65.6978 97.5201 64.25 101.675 61.3416C105.71 58.5403 111.227 54.7067 111.227 47.1124C111.227 39.518 105.71 35.6844 101.675 32.8831C97.5201 29.9833 95.8068 28.5227 95.8068 25.7C95.8068 22.8773 97.5201 21.4167 101.675 18.5126C105.706 15.707 111.227 11.8777 111.227 4.28333C111.227 1.91786 109.309 0 106.943 0C104.578 0 102.66 1.91786 102.66 4.28333C102.66 7.11462 100.947 8.56667 96.7919 11.4708C92.757 14.2678 87.2401 18.0971 87.2401 25.7C87.2401 33.3029 92.757 37.1279 96.7919 39.925C100.947 42.8333 102.66 44.2768 102.66 47.1167C102.66 49.9565 100.947 51.4 96.7919 54.3041Z" fill="#1B1B1B"/>
<path d="M131.063 56.4543C126.435 58.7706 123.385 63.3692 123.049 68.5333C123.049 70.8988 124.967 72.8167 127.332 72.8167C129.698 72.8167 131.616 70.8988 131.616 68.5333C131.616 66.6701 132.802 65.6721 135.942 63.4961C140.573 61.1756 143.623 56.5695 143.952 51.4C143.62 46.2338 140.57 41.6313 135.942 39.3124C132.802 37.1279 131.616 36.1256 131.616 34.2581C131.616 32.3906 132.802 31.3883 135.942 29.2038C140.566 26.8876 143.614 22.2937 143.952 17.1333C143.952 14.7679 142.034 12.85 139.668 12.85C137.303 12.85 135.385 14.7679 135.385 17.1333C135.385 19.0051 134.198 20.0032 131.059 22.1877C126.433 24.5049 123.384 29.1031 123.049 34.2667C123.379 39.4345 126.429 44.0386 131.059 46.3585C134.198 48.5387 135.385 49.541 135.385 51.4086C135.385 53.2761 134.198 54.2784 131.063 56.4543Z" fill="#1B1B1B"/>
<path d="M62.5295 56.4543C57.9019 58.7706 54.8511 63.3692 54.5154 68.5333C54.5154 70.8988 56.4332 72.8167 58.7987 72.8167C61.1642 72.8167 63.082 70.8988 63.082 68.5333C63.082 66.6701 64.2685 65.6721 67.4082 63.4961C72.0396 61.1756 75.0893 56.5695 75.418 51.4C75.0866 46.2338 72.0369 41.6313 67.4082 39.3124C64.2685 37.1279 63.082 36.1256 63.082 34.2581C63.082 32.3906 64.2685 31.3883 67.4082 29.2038C72.0321 26.8876 75.0807 22.2937 75.418 17.1333C75.418 14.7679 73.5002 12.85 71.1347 12.85C68.7692 12.85 66.8514 14.7679 66.8514 17.1333C66.8514 19.0051 65.6649 20.0032 62.5252 22.1877C57.8992 24.5049 54.85 29.1031 54.5154 34.2667C54.8457 39.4345 57.8955 44.0386 62.5252 46.3585C65.6649 48.5387 66.8514 49.541 66.8514 51.4086C66.8514 53.2761 65.6649 54.2784 62.5295 56.4543Z" fill="#1B1B1B"/>
<path d="M189.183 81.3834H10.0972C7.84842 81.3775 5.97821 83.1112 5.81383 85.354C5.27842 92.9012 5 100.932 5 109.225C5 167.341 18.7067 220.527 42.5905 255.15C43.391 256.309 44.7108 257.002 46.12 257H152.347C153.756 257.002 155.076 256.309 155.876 255.15C171.078 233.133 182.587 201.921 188.567 167.011C188.772 167.011 188.973 167.05 189.183 167.05C212.84 167.05 232.017 147.873 232.017 124.217C232.017 100.56 212.84 81.3834 189.183 81.3834ZM180.801 161.833C175.378 196.095 164.498 226.73 150.076 248.433H48.3902C26.5537 215.584 13.5667 163.782 13.5667 109.225C13.5667 102.582 13.7508 96.118 14.1106 89.95H184.309C184.403 91.5777 184.497 93.2054 184.566 94.8716C184.617 96.0024 184.677 97.1118 184.712 98.2597C184.827 101.853 184.9 105.503 184.9 109.225C184.925 126.842 183.554 144.433 180.801 161.833ZM189.98 158.483C190.211 156.877 190.383 155.241 190.593 153.626C190.82 151.853 191.059 150.092 191.261 148.306C191.552 145.736 191.792 143.11 192.027 140.498C192.177 138.806 192.349 137.122 192.456 135.422C192.674 132.522 192.82 129.605 192.966 126.684C193.034 125.249 193.137 123.827 193.193 122.401C193.375 118.02 193.467 113.628 193.467 109.225C193.467 105.443 193.39 101.742 193.278 98.0884C193.24 96.9704 193.184 95.8867 193.141 94.7816C193.077 93.2396 193.034 91.6676 192.948 90.1556C211.764 92.1881 225.369 109.089 223.336 127.904C221.486 145.034 207.205 158.125 189.98 158.483Z" fill="#1B1B1B"/>
</svg>
