<svg width="228" height="257" viewBox="0 0 228 257" fill="none" xmlns="http://www.w3.org/2000/svg">
<path d="M6.0166 162H183.017L150.358 252L37.4068 249.368L6.0166 162Z" fill="#B39173"/>
<path d="M91.8087 54.3041C87.7738 57.1054 82.2568 60.939 82.2568 68.5333C82.2568 70.8988 84.1747 72.8167 86.5402 72.8167C88.9056 72.8167 90.8235 70.8988 90.8235 68.5333C90.8235 65.6978 92.5368 64.25 96.6917 61.3416C100.727 58.5403 106.243 54.7067 106.243 47.1124C106.243 39.518 100.727 35.6844 96.6917 32.8831C92.5368 29.9833 90.8235 28.5227 90.8235 25.7C90.8235 22.8773 92.5368 21.4167 96.6917 18.5126C100.722 15.707 106.243 11.8777 106.243 4.28333C106.243 1.91786 104.326 0 101.96 0C99.5947 0 97.6768 1.91786 97.6768 4.28333C97.6768 7.11462 95.9635 8.56667 91.8087 11.4708C87.7738 14.2678 82.2568 18.0971 82.2568 25.7C82.2568 33.3029 87.7738 37.1279 91.8087 39.9249C95.9635 42.8333 97.6768 44.2768 97.6768 47.1167C97.6768 49.9565 95.9635 51.4 91.8087 54.3041Z" fill="#1B1B1B"/>
<path d="M126.08 56.4543C121.452 58.7705 118.401 63.3692 118.065 68.5333C118.065 70.8988 119.983 72.8166 122.349 72.8166C124.714 72.8166 126.632 70.8988 126.632 68.5333C126.632 66.6701 127.819 65.672 130.958 63.4961C135.59 61.1756 138.639 56.5694 138.968 51.4C138.637 46.2337 135.587 41.6313 130.958 39.3124C127.819 37.1279 126.632 36.1256 126.632 34.2581C126.632 32.3905 127.819 31.3882 130.958 29.2037C135.582 26.8875 138.631 22.2937 138.968 17.1333C138.968 14.7678 137.05 12.85 134.685 12.85C132.319 12.85 130.401 14.7678 130.401 17.1333C130.401 19.0051 129.215 20.0031 126.075 22.1876C121.449 24.5049 118.4 29.1031 118.065 34.2666C118.396 39.4345 121.446 44.0385 126.075 46.3585C129.215 48.5387 130.401 49.541 130.401 51.4085C130.401 53.2761 129.215 54.2784 126.08 56.4543Z" fill="#1B1B1B"/>
<path d="M57.5459 56.4543C52.9182 58.7705 49.8674 63.3692 49.5317 68.5333C49.5317 70.8988 51.4496 72.8166 53.8151 72.8166C56.1805 72.8166 58.0984 70.8988 58.0984 68.5333C58.0984 66.6701 59.2849 65.672 62.4246 63.4961C67.0559 61.1756 70.1057 56.5694 70.4344 51.4C70.103 46.2337 67.0532 41.6313 62.4246 39.3124C59.2849 37.1279 58.0984 36.1256 58.0984 34.2581C58.0984 32.3905 59.2849 31.3882 62.4246 29.2037C67.0484 26.8875 70.0971 22.2937 70.4344 17.1333C70.4344 14.7678 68.5165 12.85 66.1511 12.85C63.7856 12.85 61.8677 14.7678 61.8677 17.1333C61.8677 19.0051 60.6813 20.0031 57.5416 22.1876C52.9156 24.5049 49.8664 29.1031 49.5317 34.2666C49.8621 39.4345 52.9118 44.0385 57.5416 46.3585C60.6813 48.5387 61.8677 49.541 61.8677 51.4085C61.8677 53.2761 60.6813 54.2784 57.5459 56.4543Z" fill="#1B1B1B"/>
<path d="M184.2 81.3833H5.11377C2.86502 81.3774 0.994808 83.1111 0.830435 85.354C0.295018 92.9012 0.0166016 100.932 0.0166016 109.225C0.0166016 167.341 13.7233 220.527 37.6071 255.15C38.4076 256.309 39.7274 257.002 41.1366 257H147.363C148.772 257.002 150.092 256.309 150.893 255.15C166.094 233.133 177.604 201.921 183.583 167.011C183.789 167.011 183.99 167.05 184.2 167.05C207.856 167.05 227.033 147.873 227.033 124.217C227.033 100.56 207.856 81.3833 184.2 81.3833ZM175.817 161.833C170.395 196.095 159.515 226.73 145.093 248.433H43.4068C21.5703 215.584 8.58327 163.782 8.58327 109.225C8.58327 102.582 8.76745 96.118 9.12725 89.95H179.326C179.42 91.5776 179.514 93.2053 179.583 94.8715C179.634 96.0023 179.694 97.1117 179.728 98.2597C179.844 101.853 179.917 105.503 179.917 109.225C179.941 126.842 178.571 144.433 175.817 161.833ZM184.997 158.483C185.228 156.877 185.399 155.241 185.609 153.626C185.836 151.853 186.076 150.092 186.277 148.306C186.569 145.736 186.808 143.11 187.044 140.498C187.194 138.806 187.365 137.122 187.472 135.422C187.691 132.522 187.836 129.605 187.982 126.684C188.051 125.249 188.153 123.827 188.209 122.401C188.392 118.02 188.483 113.628 188.483 109.225C188.483 105.443 188.406 101.742 188.295 98.0883C188.256 96.9704 188.201 95.8867 188.158 94.7816C188.093 93.2396 188.051 91.6676 187.965 90.1556C206.781 92.188 220.386 109.089 218.353 127.904C216.503 145.034 202.222 158.125 184.997 158.483Z" fill="#1B1B1B"/>
</svg>
