<svg width="228" height="257" viewBox="0 0 228 257" fill="none" xmlns="http://www.w3.org/2000/svg">
<path d="M91.7921 54.3041C87.7572 57.1054 82.2402 60.939 82.2402 68.5333C82.2402 70.8988 84.1581 72.8167 86.5236 72.8167C88.889 72.8167 90.8069 70.8988 90.8069 68.5333C90.8069 65.6978 92.5202 64.25 96.6751 61.3416C100.71 58.5403 106.227 54.7067 106.227 47.1124C106.227 39.518 100.71 35.6844 96.6751 32.8831C92.5202 29.9833 90.8069 28.5227 90.8069 25.7C90.8069 22.8773 92.5202 21.4167 96.6751 18.5126C100.706 15.707 106.227 11.8777 106.227 4.28333C106.227 1.91786 104.309 0 101.944 0C99.5781 0 97.6602 1.91786 97.6602 4.28333C97.6602 7.11462 95.9469 8.56667 91.7921 11.4708C87.7572 14.2678 82.2402 18.0971 82.2402 25.7C82.2402 33.3029 87.7572 37.1279 91.7921 39.925C95.9469 42.8333 97.6602 44.2768 97.6602 47.1167C97.6602 49.9565 95.9469 51.4 91.7921 54.3041Z" fill="#1B1B1B"/>
<path d="M126.063 56.4543C121.435 58.7705 118.385 63.3692 118.049 68.5333C118.049 70.8988 119.967 72.8166 122.332 72.8166C124.698 72.8166 126.616 70.8988 126.616 68.5333C126.616 66.6701 127.802 65.672 130.942 63.4961C135.573 61.1756 138.623 56.5694 138.951 51.4C138.62 46.2337 135.57 41.6313 130.942 39.3124C127.802 37.1279 126.616 36.1256 126.616 34.2581C126.616 32.3905 127.802 31.3882 130.942 29.2037C135.566 26.8875 138.614 22.2937 138.951 17.1333C138.951 14.7678 137.034 12.85 134.668 12.85C132.303 12.85 130.385 14.7678 130.385 17.1333C130.385 19.0051 129.198 20.0031 126.059 22.1876C121.433 24.5049 118.383 29.1031 118.049 34.2666C118.379 39.4345 121.429 44.0385 126.059 46.3585C129.198 48.5387 130.385 49.541 130.385 51.4085C130.385 53.2761 129.198 54.2784 126.063 56.4543Z" fill="#1B1B1B"/>
<path d="M57.5297 56.4543C52.9021 58.7705 49.8513 63.3692 49.5156 68.5333C49.5156 70.8988 51.4335 72.8166 53.799 72.8166C56.1644 72.8166 58.0823 70.8988 58.0823 68.5333C58.0823 66.6701 59.2688 65.672 62.4085 63.4961C67.0398 61.1756 70.0895 56.5694 70.4183 51.4C70.0869 46.2337 67.0371 41.6313 62.4085 39.3124C59.2688 37.1279 58.0823 36.1256 58.0823 34.2581C58.0823 32.3905 59.2688 31.3882 62.4085 29.2037C67.0323 26.8875 70.081 22.2937 70.4183 17.1333C70.4183 14.7678 68.5004 12.85 66.135 12.85C63.7695 12.85 61.8516 14.7678 61.8516 17.1333C61.8516 19.0051 60.6651 20.0031 57.5255 22.1876C52.8995 24.5049 49.8503 29.1031 49.5156 34.2666C49.846 39.4345 52.8957 44.0385 57.5255 46.3585C60.6651 48.5387 61.8516 49.541 61.8516 51.4085C61.8516 53.2761 60.6651 54.2784 57.5297 56.4543Z" fill="#1B1B1B"/>
<path d="M184.183 81.3833H5.09717C2.84842 81.3774 0.978207 83.1111 0.813834 85.354C0.278417 92.9012 0 100.932 0 109.225C0 167.341 13.7067 220.527 37.5905 255.15C38.391 256.309 39.7108 257.002 41.12 257H147.347C148.756 257.002 150.076 256.309 150.876 255.15C166.078 233.133 177.587 201.921 183.567 167.011C183.772 167.011 183.973 167.05 184.183 167.05C207.84 167.05 227.017 147.873 227.017 124.217C227.017 100.56 207.84 81.3833 184.183 81.3833ZM175.801 161.833C170.378 196.095 159.498 226.73 145.076 248.433H43.3902C21.5537 215.584 8.56667 163.782 8.56667 109.225C8.56667 102.582 8.75085 96.118 9.11065 89.95H179.309C179.403 91.5776 179.497 93.2053 179.566 94.8715C179.617 96.0023 179.677 97.1117 179.712 98.2597C179.827 101.853 179.9 105.503 179.9 109.225C179.925 126.842 178.554 144.433 175.801 161.833ZM184.98 158.483C185.211 156.877 185.383 155.241 185.593 153.626C185.82 151.853 186.059 150.092 186.261 148.306C186.552 145.736 186.792 143.11 187.027 140.498C187.177 138.806 187.349 137.122 187.456 135.422C187.674 132.522 187.82 129.605 187.966 126.684C188.034 125.249 188.137 123.827 188.193 122.401C188.375 118.02 188.467 113.628 188.467 109.225C188.467 105.443 188.39 101.742 188.278 98.0883C188.24 96.9704 188.184 95.8867 188.141 94.7816C188.077 93.2396 188.034 91.6676 187.948 90.1556C206.764 92.188 220.369 109.089 218.336 127.904C216.486 145.034 202.205 158.125 184.98 158.483Z" fill="#1B1B1B"/>
</svg>
