<svg width="148" height="238" viewBox="0 0 148 238" fill="none" xmlns="http://www.w3.org/2000/svg">
<path d="M4.69067 16H142.691L132.254 231H15.1151L4.69067 16Z" fill="#4E3017"/>
<path d="M146.577 1.25663C145.804 0.454281 144.737 0.00102064 143.623 1.89549e-05H83.6563L75.1521 0L58.6333 9.95134e-06L44.412 1.89549e-05L32.7685 1.62024e-05L4.10589 1.89549e-05C1.83659 0.00152148 -0.00200173 1.84311 1.63562e-06 4.11242C1.63562e-06 4.159 0.00100567 4.20557 0.00250819 4.25215L7.55267 214.2C7.94233 227.494 18.8586 238.053 32.1579 238H115.099C128.372 238.047 139.276 227.528 139.704 214.261L147.721 4.26217C147.766 3.1463 147.353 2.06048 146.577 1.25663ZM131.503 213.959C131.222 222.807 123.951 229.825 115.099 229.793H32.1579C23.2891 229.827 16.0109 222.783 15.7544 213.918L8.35802 8.20678H130.569H139.361L131.503 213.959Z" fill="#1B1B1B"/>
</svg>
