<svg width="148" height="238" viewBox="0 0 148 238" fill="none" xmlns="http://www.w3.org/2000/svg">
<path d="M8.0332 165H138.033L131.57 231H16.9645L8.0332 165Z" fill="#B39173"/>
<path d="M8.0332 16H142.033L136.803 168H11.0221L8.0332 16Z" fill="#FAFAFA"/>
<path d="M146.611 1.25663C145.837 0.454281 144.771 0.00102064 143.656 1.89549e-05H83.6895L75.1853 0L58.6665 9.95134e-06L44.4452 1.89549e-05L32.8017 1.62024e-05L4.1391 1.89549e-05C1.86979 0.00152148 0.0312014 1.84311 0.0332048 4.11242C0.0332048 4.159 0.0342088 4.20557 0.0357113 4.25215L7.58588 214.2C7.97553 227.494 18.8918 238.053 32.1912 238H115.132C128.406 238.047 139.309 227.528 139.738 214.261L147.755 4.26217C147.8 3.1463 147.386 2.06048 146.611 1.25663ZM131.536 213.959C131.255 222.807 123.985 229.825 115.132 229.793H32.1912C23.3223 229.827 16.0441 222.783 15.7876 213.918L8.39123 8.20678H130.602H139.394L131.536 213.959Z" fill="#1B1B1B"/>
</svg>
