<svg width="228" height="257" viewBox="0 0 228 257" fill="none" xmlns="http://www.w3.org/2000/svg">
<path d="M0.0830078 107H185.083L169.583 209H18.583L0.0830078 107Z" fill="#FAFAFA"/>
<path d="M17.083 207H171.083L150.424 252L37.4733 250.684L17.083 207Z" fill="#B39173"/>
<path d="M91.8751 54.3041C87.8402 57.1054 82.3232 60.939 82.3232 68.5333C82.3232 70.8988 84.2411 72.8167 86.6066 72.8167C88.972 72.8167 90.8899 70.8988 90.8899 68.5333C90.8899 65.6978 92.6032 64.25 96.7581 61.3416C100.793 58.5403 106.31 54.7067 106.31 47.1124C106.31 39.518 100.793 35.6844 96.7581 32.8831C92.6032 29.9833 90.8899 28.5227 90.8899 25.7C90.8899 22.8773 92.6032 21.4167 96.7581 18.5126C100.789 15.707 106.31 11.8777 106.31 4.28333C106.31 1.91786 104.392 0 102.027 0C99.6611 0 97.7432 1.91786 97.7432 4.28333C97.7432 7.11462 96.0299 8.56667 91.8751 11.4708C87.8402 14.2678 82.3232 18.0971 82.3232 25.7C82.3232 33.3029 87.8402 37.1279 91.8751 39.9249C96.0299 42.8333 97.7432 44.2768 97.7432 47.1167C97.7432 49.9565 96.0299 51.4 91.8751 54.3041Z" fill="#1B1B1B"/>
<path d="M126.146 56.4543C121.518 58.7705 118.468 63.3692 118.132 68.5333C118.132 70.8988 120.05 72.8166 122.415 72.8166C124.781 72.8166 126.699 70.8988 126.699 68.5333C126.699 66.6701 127.885 65.672 131.025 63.4961C135.656 61.1756 138.706 56.5694 139.034 51.4C138.703 46.2337 135.653 41.6313 131.025 39.3124C127.885 37.1279 126.699 36.1256 126.699 34.2581C126.699 32.3905 127.885 31.3882 131.025 29.2037C135.649 26.8875 138.697 22.2937 139.034 17.1333C139.034 14.7678 137.117 12.85 134.751 12.85C132.386 12.85 130.468 14.7678 130.468 17.1333C130.468 19.0051 129.281 20.0031 126.142 22.1876C121.516 24.5049 118.466 29.1031 118.132 34.2666C118.462 39.4345 121.512 44.0385 126.142 46.3585C129.281 48.5387 130.468 49.541 130.468 51.4085C130.468 53.2761 129.281 54.2784 126.146 56.4543Z" fill="#1B1B1B"/>
<path d="M57.6123 56.4543C52.9847 58.7705 49.9339 63.3692 49.5981 68.5333C49.5981 70.8988 51.516 72.8166 53.8815 72.8166C56.2469 72.8166 58.1648 70.8988 58.1648 68.5333C58.1648 66.6701 59.3513 65.672 62.491 63.4961C67.1223 61.1756 70.1721 56.5694 70.5008 51.4C70.1694 46.2337 67.1197 41.6313 62.491 39.3124C59.3513 37.1279 58.1648 36.1256 58.1648 34.2581C58.1648 32.3905 59.3513 31.3882 62.491 29.2037C67.1148 26.8875 70.1635 22.2937 70.5008 17.1333C70.5008 14.7678 68.5829 12.85 66.2175 12.85C63.852 12.85 61.9341 14.7678 61.9341 17.1333C61.9341 19.0051 60.7477 20.0031 57.608 22.1876C52.982 24.5049 49.9328 29.1031 49.5981 34.2666C49.9285 39.4345 52.9782 44.0385 57.608 46.3585C60.7477 48.5387 61.9341 49.541 61.9341 51.4085C61.9341 53.2761 60.7477 54.2784 57.6123 56.4543Z" fill="#1B1B1B"/>
<path d="M184.266 81.3833H5.18017C2.93142 81.3774 1.06121 83.1111 0.896841 85.354C0.361425 92.9012 0.0830078 100.932 0.0830078 109.225C0.0830078 167.341 13.7897 220.527 37.6735 255.15C38.474 256.309 39.7938 257.002 41.203 257H147.43C148.839 257.002 150.159 256.309 150.959 255.15C166.161 233.133 177.67 201.921 183.65 167.011C183.855 167.011 184.056 167.05 184.266 167.05C207.923 167.05 227.1 147.873 227.1 124.217C227.1 100.56 207.923 81.3833 184.266 81.3833ZM175.884 161.833C170.461 196.095 159.581 226.73 145.16 248.433H43.4732C21.6367 215.584 8.64967 163.782 8.64967 109.225C8.64967 102.582 8.83386 96.118 9.19366 89.95H179.392C179.486 91.5776 179.58 93.2053 179.649 94.8715C179.7 96.0023 179.76 97.1117 179.795 98.2597C179.91 101.853 179.983 105.503 179.983 109.225C180.008 126.842 178.637 144.433 175.884 161.833ZM185.063 158.483C185.294 156.877 185.466 155.241 185.676 153.626C185.903 151.853 186.142 150.092 186.344 148.306C186.635 145.736 186.875 143.11 187.11 140.498C187.26 138.806 187.432 137.122 187.539 135.422C187.757 132.522 187.903 129.605 188.049 126.684C188.117 125.249 188.22 123.827 188.276 122.401C188.458 118.02 188.55 113.628 188.55 109.225C188.55 105.443 188.473 101.742 188.361 98.0883C188.323 96.9704 188.267 95.8867 188.224 94.7816C188.16 93.2396 188.117 91.6676 188.031 90.1556C206.847 92.188 220.452 109.089 218.419 127.904C216.569 145.034 202.288 158.125 185.063 158.483Z" fill="#1B1B1B"/>
</svg>
