<svg width="232" height="257" viewBox="0 0 232 257" fill="none" xmlns="http://www.w3.org/2000/svg">
<path d="M4.08301 107H189.083L173.583 209H22.583L4.08301 107Z" fill="#FAFAFA"/>
<path d="M21.083 207H175.083L154.424 252L41.4733 250.684L21.083 207Z" fill="#B39173"/>
<path d="M95.8749 54.3041C91.84 57.1054 86.3231 60.939 86.3231 68.5333C86.3231 70.8988 88.2409 72.8167 90.6064 72.8167C92.9719 72.8167 94.8897 70.8988 94.8897 68.5333C94.8897 65.6978 96.6031 64.25 100.758 61.3416C104.793 58.5403 110.31 54.7067 110.31 47.1124C110.31 39.518 104.793 35.6844 100.758 32.8831C96.6031 29.9833 94.8897 28.5227 94.8897 25.7C94.8897 22.8773 96.6031 21.4167 100.758 18.5126C104.789 15.707 110.31 11.8777 110.31 4.28333C110.31 1.91786 108.392 0 106.026 0C103.661 0 101.743 1.91786 101.743 4.28333C101.743 7.11462 100.03 8.56667 95.8749 11.4708C91.84 14.2678 86.3231 18.0971 86.3231 25.7C86.3231 33.3029 91.84 37.1279 95.8749 39.9249C100.03 42.8333 101.743 44.2768 101.743 47.1167C101.743 49.9565 100.03 51.4 95.8749 54.3041Z" fill="#1B1B1B"/>
<path d="M130.146 56.4543C125.518 58.7706 122.467 63.3692 122.132 68.5333C122.132 70.8988 124.05 72.8167 126.415 72.8167C128.78 72.8167 130.698 70.8988 130.698 68.5333C130.698 66.6701 131.885 65.6721 135.024 63.4961C139.656 61.1756 142.706 56.5695 143.034 51.4C142.703 46.2338 139.653 41.6313 135.024 39.3124C131.885 37.1279 130.698 36.1256 130.698 34.2581C130.698 32.3906 131.885 31.3883 135.024 29.2038C139.648 26.8876 142.697 22.2937 143.034 17.1333C143.034 14.7679 141.116 12.85 138.751 12.85C136.386 12.85 134.468 14.7679 134.468 17.1333C134.468 19.0052 133.281 20.0032 130.141 22.1877C125.515 24.505 122.466 29.1031 122.132 34.2667C122.462 39.4345 125.512 44.0386 130.141 46.3585C133.281 48.5387 134.468 49.541 134.468 51.4086C134.468 53.2761 133.281 54.2784 130.146 56.4543Z" fill="#1B1B1B"/>
<path d="M61.6124 56.4543C56.9848 58.7706 53.934 63.3692 53.5983 68.5333C53.5983 70.8988 55.5162 72.8167 57.8817 72.8167C60.2471 72.8167 62.165 70.8988 62.165 68.5333C62.165 66.6701 63.3515 65.6721 66.4912 63.4961C71.1225 61.1756 74.1722 56.5695 74.501 51.4C74.1696 46.2338 71.1198 41.6313 66.4912 39.3124C63.3515 37.1279 62.165 36.1256 62.165 34.2581C62.165 32.3906 63.3515 31.3883 66.4912 29.2038C71.115 26.8876 74.1637 22.2937 74.501 17.1333C74.501 14.7679 72.5831 12.85 70.2177 12.85C67.8522 12.85 65.9343 14.7679 65.9343 17.1333C65.9343 19.0052 64.7478 20.0032 61.6082 22.1877C56.9822 24.505 53.933 29.1031 53.5983 34.2667C53.9287 39.4345 56.9784 44.0386 61.6082 46.3585C64.7478 48.5387 65.9343 49.541 65.9343 51.4086C65.9343 53.2761 64.7478 54.2784 61.6124 56.4543Z" fill="#1B1B1B"/>
<path d="M188.266 81.3833H9.18017C6.93142 81.3775 5.06121 83.1111 4.89684 85.354C4.36142 92.9012 4.08301 100.932 4.08301 109.225C4.08301 167.341 17.7897 220.527 41.6735 255.15C42.474 256.309 43.7938 257.002 45.203 257H151.43C152.839 257.002 154.159 256.309 154.959 255.15C170.161 233.133 181.67 201.921 187.65 167.011C187.855 167.011 188.056 167.05 188.266 167.05C211.923 167.05 231.1 147.873 231.1 124.217C231.1 100.56 211.923 81.3833 188.266 81.3833ZM179.884 161.833C174.461 196.095 163.581 226.73 149.16 248.433H47.4732C25.6367 215.584 12.6497 163.782 12.6497 109.225C12.6497 102.582 12.8339 96.118 13.1937 89.95H183.392C183.486 91.5777 183.58 93.2053 183.649 94.8716C183.7 96.0024 183.76 97.1117 183.795 98.2597C183.91 101.853 183.983 105.503 183.983 109.225C184.008 126.842 182.637 144.433 179.884 161.833ZM189.063 158.483C189.294 156.877 189.466 155.241 189.676 153.626C189.903 151.853 190.142 150.092 190.344 148.306C190.635 145.736 190.875 143.11 191.11 140.498C191.26 138.806 191.432 137.122 191.539 135.422C191.757 132.522 191.903 129.605 192.049 126.684C192.117 125.249 192.22 123.827 192.276 122.401C192.458 118.02 192.55 113.628 192.55 109.225C192.55 105.443 192.473 101.742 192.361 98.0883C192.323 96.9704 192.267 95.8867 192.224 94.7816C192.16 93.2396 192.117 91.6676 192.031 90.1556C210.847 92.1881 224.452 109.089 222.419 127.904C220.569 145.034 206.288 158.125 189.063 158.483Z" fill="#1B1B1B"/>
</svg>
