<svg width="232" height="257" viewBox="0 0 232 257" fill="none" xmlns="http://www.w3.org/2000/svg">
<path opacity="0.3" d="M12 87H188L188.316 90.2188C193.659 144.592 183.261 199.355 158.36 247.985L154 256.5H47V256.5C16.5817 206.666 4.09455 147.938 11.6058 90.0388L12 87Z" fill="#1B1B1B"/>
<path d="M4.55115 107.275H188.989L180.52 181.615L154.172 253.132H44.0736L18.6663 197.612L4.55115 107.275Z" fill="#C8E6E5"/>
<path d="M95.7919 54.3041C91.757 57.1054 86.2401 60.939 86.2401 68.5333C86.2401 70.8988 88.158 72.8167 90.5234 72.8167C92.8889 72.8167 94.8068 70.8988 94.8068 68.5333C94.8068 65.6978 96.5201 64.25 100.675 61.3416C104.71 58.5403 110.227 54.7067 110.227 47.1124C110.227 39.518 104.71 35.6844 100.675 32.8831C96.5201 29.9833 94.8068 28.5227 94.8068 25.7C94.8068 22.8773 96.5201 21.4167 100.675 18.5126C104.706 15.707 110.227 11.8777 110.227 4.28333C110.227 1.91786 108.309 0 105.943 0C103.578 0 101.66 1.91786 101.66 4.28333C101.66 7.11462 99.9468 8.56667 95.7919 11.4708C91.757 14.2678 86.2401 18.0971 86.2401 25.7C86.2401 33.3029 91.757 37.1279 95.7919 39.925C99.9468 42.8333 101.66 44.2768 101.66 47.1167C101.66 49.9565 99.9468 51.4 95.7919 54.3041Z" fill="#1B1B1B"/>
<path d="M130.063 56.4543C125.435 58.7706 122.385 63.3692 122.049 68.5333C122.049 70.8988 123.967 72.8167 126.332 72.8167C128.698 72.8167 130.616 70.8988 130.616 68.5333C130.616 66.6701 131.802 65.6721 134.942 63.4961C139.573 61.1756 142.623 56.5695 142.952 51.4C142.62 46.2338 139.57 41.6313 134.942 39.3124C131.802 37.1279 130.616 36.1256 130.616 34.2581C130.616 32.3906 131.802 31.3883 134.942 29.2038C139.566 26.8876 142.614 22.2937 142.952 17.1333C142.952 14.7679 141.034 12.85 138.668 12.85C136.303 12.85 134.385 14.7679 134.385 17.1333C134.385 19.0051 133.198 20.0032 130.059 22.1877C125.433 24.5049 122.384 29.1031 122.049 34.2667C122.379 39.4345 125.429 44.0386 130.059 46.3585C133.198 48.5387 134.385 49.541 134.385 51.4086C134.385 53.2761 133.198 54.2784 130.063 56.4543Z" fill="#1B1B1B"/>
<path d="M61.5295 56.4543C56.9019 58.7706 53.8511 63.3692 53.5154 68.5333C53.5154 70.8988 55.4332 72.8167 57.7987 72.8167C60.1642 72.8167 62.082 70.8988 62.082 68.5333C62.082 66.6701 63.2685 65.6721 66.4082 63.4961C71.0396 61.1756 74.0893 56.5695 74.418 51.4C74.0866 46.2338 71.0369 41.6313 66.4082 39.3124C63.2685 37.1279 62.082 36.1256 62.082 34.2581C62.082 32.3906 63.2685 31.3883 66.4082 29.2038C71.0321 26.8876 74.0807 22.2937 74.418 17.1333C74.418 14.7679 72.5002 12.85 70.1347 12.85C67.7692 12.85 65.8514 14.7679 65.8514 17.1333C65.8514 19.0051 64.6649 20.0032 61.5252 22.1877C56.8992 24.5049 53.85 29.1031 53.5154 34.2667C53.8457 39.4345 56.8955 44.0386 61.5252 46.3585C64.6649 48.5387 65.8514 49.541 65.8514 51.4086C65.8514 53.2761 64.6649 54.2784 61.5295 56.4543Z" fill="#1B1B1B"/>
<path d="M188.183 81.3833H9.09717C6.84842 81.3775 4.97821 83.1111 4.81383 85.354C4.27842 92.9012 4 100.932 4 109.225C4 167.341 17.7067 220.527 41.5905 255.15C42.391 256.309 43.7108 257.002 45.12 257H151.347C152.756 257.002 154.076 256.309 154.876 255.15C170.078 233.133 181.587 201.921 187.567 167.011C187.772 167.011 187.973 167.05 188.183 167.05C211.84 167.05 231.017 147.873 231.017 124.217C231.017 100.56 211.84 81.3833 188.183 81.3833ZM179.801 161.833C174.378 196.095 163.498 226.73 149.076 248.433H47.3902C25.5537 215.584 12.5667 163.782 12.5667 109.225C12.5667 102.582 12.7508 96.118 13.1106 89.95H183.309C183.403 91.5777 183.497 93.2053 183.566 94.8716C183.617 96.0024 183.677 97.1117 183.712 98.2597C183.827 101.853 183.9 105.503 183.9 109.225C183.925 126.842 182.554 144.433 179.801 161.833ZM188.98 158.483C189.211 156.877 189.383 155.241 189.593 153.626C189.82 151.853 190.059 150.092 190.261 148.306C190.552 145.736 190.792 143.11 191.027 140.498C191.177 138.806 191.349 137.122 191.456 135.422C191.674 132.522 191.82 129.605 191.966 126.684C192.034 125.249 192.137 123.827 192.193 122.401C192.375 118.02 192.467 113.628 192.467 109.225C192.467 105.443 192.39 101.742 192.278 98.0883C192.24 96.9704 192.184 95.8867 192.141 94.7816C192.077 93.2396 192.034 91.6676 191.948 90.1556C210.764 92.1881 224.369 109.089 222.336 127.904C220.486 145.034 206.205 158.125 188.98 158.483Z" fill="#1B1B1B"/>
</svg>
