<svg width="122" height="137" viewBox="0 0 122 137" fill="none" xmlns="http://www.w3.org/2000/svg">
<path d="M1 57H99L94.5 96.5L80.5 134.5H22L8.5 105L1 57Z" fill="#C8E6E5"/>
<path d="M49.4801 28.8541C47.3362 30.3426 44.4048 32.3795 44.4048 36.4147C44.4048 37.6716 45.4238 38.6906 46.6807 38.6906C47.9376 38.6906 48.9566 37.6716 48.9566 36.4147C48.9566 34.9081 49.867 34.1388 52.0746 32.5935C54.2186 31.105 57.1499 29.0681 57.1499 25.0328C57.1499 20.9976 54.2186 18.9607 52.0746 17.4722C49.867 15.9314 48.9566 15.1554 48.9566 13.6555C48.9566 12.1557 49.867 11.3796 52.0746 9.83653C54.2163 8.3458 57.1499 6.31113 57.1499 2.27592C57.1499 1.01904 56.1309 0 54.874 0C53.6171 0 52.5981 1.01904 52.5981 2.27592C52.5981 3.7803 51.6877 4.55184 49.4801 6.09491C47.3362 7.58109 44.4048 9.61576 44.4048 13.6555C44.4048 17.6953 47.3362 19.7277 49.4801 21.2139C51.6877 22.7592 52.5981 23.5262 52.5981 25.0351C52.5981 26.5441 51.6877 27.311 49.4801 28.8541Z" fill="#1B1B1B"/>
<path d="M67.6899 29.9966C65.231 31.2273 63.61 33.6708 63.4316 36.4147C63.4316 37.6716 64.4507 38.6906 65.7076 38.6906C66.9644 38.6906 67.9835 37.6716 67.9835 36.4147C67.9835 35.4247 68.6139 34.8944 70.2822 33.7382C72.743 32.5053 74.3635 30.0578 74.5381 27.311C74.362 24.566 72.7416 22.1205 70.2822 20.8884C68.6139 19.7277 67.9835 19.1951 67.9835 18.2028C67.9835 17.2105 68.6139 16.6779 70.2822 15.5172C72.739 14.2865 74.3589 11.8456 74.5381 9.10368C74.5381 7.8468 73.5191 6.82776 72.2622 6.82776C71.0053 6.82776 69.9863 7.8468 69.9863 9.10368C69.9863 10.0983 69.3559 10.6285 67.6876 11.7893C65.2296 13.0205 63.6094 15.4637 63.4316 18.2074C63.6072 20.9533 65.2276 23.3996 67.6876 24.6323C69.3559 25.7907 69.9863 26.3233 69.9863 27.3156C69.9863 28.3079 69.3559 28.8405 67.6899 29.9966Z" fill="#1B1B1B"/>
<path d="M31.2748 29.9966C28.816 31.2273 27.195 33.6708 27.0166 36.4147C27.0166 37.6716 28.0356 38.6906 29.2925 38.6906C30.5494 38.6906 31.5684 37.6716 31.5684 36.4147C31.5684 35.4247 32.1989 34.8944 33.8671 33.7382C36.328 32.5053 37.9484 30.0578 38.1231 27.311C37.947 24.566 36.3265 22.1205 33.8671 20.8884C32.1989 19.7277 31.5684 19.1951 31.5684 18.2028C31.5684 17.2105 32.1989 16.6779 33.8671 15.5172C36.324 14.2865 37.9439 11.8456 38.1231 9.10368C38.1231 7.8468 37.104 6.82776 35.8472 6.82776C34.5903 6.82776 33.5713 7.8468 33.5713 9.10368C33.5713 10.0983 32.9408 10.6285 31.2726 11.7893C28.8146 13.0205 27.1944 15.4637 27.0166 18.2074C27.1921 20.9533 28.8126 23.3996 31.2726 24.6323C32.9408 25.7907 33.5713 26.3233 33.5713 27.3156C33.5713 28.3079 32.9408 28.8405 31.2748 29.9966Z" fill="#1B1B1B"/>
<path d="M98.5716 43.2424H3.41538C2.22052 43.2393 1.22679 44.1605 1.13946 45.3522C0.854966 49.3624 0.707031 53.6297 0.707031 58.0359C0.707031 88.9156 7.98998 117.176 20.6805 135.572C21.1058 136.188 21.8071 136.556 22.5559 136.555H78.9987C79.7475 136.556 80.4487 136.188 80.874 135.572C88.9513 123.874 95.0667 107.289 98.2439 88.7404C98.3531 88.7404 98.4601 88.7608 98.5716 88.7608C111.141 88.7608 121.331 78.5713 121.331 66.0016C121.331 53.432 111.141 43.2424 98.5716 43.2424ZM94.1176 85.9888C91.2363 104.194 85.4555 120.471 77.7924 132.003H23.7621C12.1595 114.549 5.25887 87.0243 5.25887 58.0359C5.25887 54.506 5.35674 51.0716 5.54791 47.7943H95.9816C96.0317 48.6591 96.0818 49.524 96.1182 50.4093C96.1455 51.0102 96.1773 51.5996 96.1955 52.2096C96.257 54.1191 96.2957 56.0581 96.2957 58.0359C96.3088 67.3965 95.5805 76.7434 94.1176 85.9888ZM98.9949 84.209C99.1178 83.3555 99.2089 82.4861 99.3204 81.6281C99.441 80.6859 99.5685 79.7505 99.6754 78.8014C99.8302 77.4359 99.9576 76.0407 100.083 74.6524C100.162 73.7534 100.254 72.859 100.31 71.9555C100.426 70.4147 100.504 68.8648 100.581 67.3126C100.618 66.5501 100.672 65.7945 100.702 65.0367C100.799 62.7092 100.848 60.3756 100.848 58.0359C100.848 56.0263 100.807 54.0599 100.747 52.1185C100.727 51.5245 100.697 50.9487 100.675 50.3615C100.64 49.5422 100.618 48.7069 100.572 47.9035C110.57 48.9834 117.799 57.9637 116.719 67.9609C115.735 77.0626 108.147 84.0187 98.9949 84.209Z" fill="#1B1B1B"/>
</svg>
