<svg width="148" height="238" viewBox="0 0 148 238" fill="none" xmlns="http://www.w3.org/2000/svg">
<path opacity="0.8" d="M4.77344 16H142.773L132.337 231H15.1979L4.77344 16Z" fill="#4E3017"/>
<path d="M146.66 1.25663C145.887 0.454281 144.82 0.00102064 143.706 1.89549e-05H83.7393L75.2351 0L58.7163 9.95134e-06L44.495 1.89549e-05L32.8515 1.62024e-05L4.1889 1.89549e-05C1.91959 0.00152148 0.0810061 1.84311 0.0830094 4.11242C0.0830094 4.159 0.0840135 4.20557 0.085516 4.25215L7.63568 214.2C8.02533 227.494 18.9416 238.053 32.241 238H115.182C128.455 238.047 139.359 227.528 139.787 214.261L147.804 4.26217C147.849 3.1463 147.436 2.06048 146.66 1.25663ZM131.586 213.959C131.305 222.807 124.034 229.825 115.182 229.793H32.241C23.3721 229.827 16.0939 222.783 15.8374 213.918L8.44103 8.20678H130.652H139.444L131.586 213.959Z" fill="#1B1B1B"/>
</svg>
