<svg width="232" height="257" viewBox="0 0 232 257" fill="none" xmlns="http://www.w3.org/2000/svg">
<path d="M10.0166 162H187.017L154.358 252L41.4068 249.368L10.0166 162Z" fill="#B39173"/>
<path d="M95.8084 54.3041C91.7735 57.1054 86.2566 60.939 86.2566 68.5333C86.2566 70.8988 88.1745 72.8167 90.5399 72.8167C92.9054 72.8167 94.8233 70.8988 94.8233 68.5333C94.8233 65.6978 96.5366 64.25 100.691 61.3416C104.726 58.5403 110.243 54.7067 110.243 47.1124C110.243 39.518 104.726 35.6844 100.691 32.8831C96.5366 29.9833 94.8233 28.5227 94.8233 25.7C94.8233 22.8773 96.5366 21.4167 100.691 18.5126C104.722 15.707 110.243 11.8777 110.243 4.28333C110.243 1.91786 108.325 0 105.96 0C103.594 0 101.677 1.91786 101.677 4.28333C101.677 7.11462 99.9633 8.56667 95.8084 11.4708C91.7735 14.2678 86.2566 18.0971 86.2566 25.7C86.2566 33.3029 91.7735 37.1279 95.8084 39.9249C99.9633 42.8333 101.677 44.2768 101.677 47.1167C101.677 49.9565 99.9633 51.4 95.8084 54.3041Z" fill="#1B1B1B"/>
<path d="M130.079 56.4543C125.452 58.7706 122.401 63.3692 122.065 68.5333C122.065 70.8988 123.983 72.8167 126.349 72.8167C128.714 72.8167 130.632 70.8988 130.632 68.5333C130.632 66.6701 131.818 65.6721 134.958 63.4961C139.589 61.1756 142.639 56.5695 142.968 51.4C142.637 46.2338 139.587 41.6313 134.958 39.3124C131.818 37.1279 130.632 36.1256 130.632 34.2581C130.632 32.3906 131.818 31.3883 134.958 29.2038C139.582 26.8876 142.631 22.2937 142.968 17.1333C142.968 14.7679 141.05 12.85 138.685 12.85C136.319 12.85 134.401 14.7679 134.401 17.1333C134.401 19.0052 133.215 20.0032 130.075 22.1877C125.449 24.505 122.4 29.1031 122.065 34.2667C122.396 39.4345 125.445 44.0386 130.075 46.3585C133.215 48.5387 134.401 49.541 134.401 51.4086C134.401 53.2761 133.215 54.2784 130.079 56.4543Z" fill="#1B1B1B"/>
<path d="M61.5461 56.4543C56.9185 58.7706 53.8677 63.3692 53.532 68.5333C53.532 70.8988 55.4498 72.8167 57.8153 72.8167C60.1808 72.8167 62.0986 70.8988 62.0986 68.5333C62.0986 66.6701 63.2851 65.6721 66.4248 63.4961C71.0562 61.1756 74.1059 56.5695 74.4346 51.4C74.1032 46.2338 71.0535 41.6313 66.4248 39.3124C63.2851 37.1279 62.0986 36.1256 62.0986 34.2581C62.0986 32.3906 63.2851 31.3883 66.4248 29.2038C71.0487 26.8876 74.0973 22.2937 74.4346 17.1333C74.4346 14.7679 72.5168 12.85 70.1513 12.85C67.7858 12.85 65.868 14.7679 65.868 17.1333C65.868 19.0052 64.6815 20.0032 61.5418 22.1877C56.9158 24.505 53.8666 29.1031 53.532 34.2667C53.8623 39.4345 56.9121 44.0386 61.5418 46.3585C64.6815 48.5387 65.868 49.541 65.868 51.4086C65.868 53.2761 64.6815 54.2784 61.5461 56.4543Z" fill="#1B1B1B"/>
<path d="M188.2 81.3833H9.11377C6.86502 81.3775 4.99481 83.1111 4.83044 85.354C4.29502 92.9012 4.0166 100.932 4.0166 109.225C4.0166 167.341 17.7233 220.527 41.6071 255.15C42.4076 256.309 43.7274 257.002 45.1366 257H151.363C152.772 257.002 154.092 256.309 154.893 255.15C170.094 233.133 181.604 201.921 187.583 167.011C187.789 167.011 187.99 167.05 188.2 167.05C211.856 167.05 231.033 147.873 231.033 124.217C231.033 100.56 211.856 81.3833 188.2 81.3833ZM179.817 161.833C174.395 196.095 163.515 226.73 149.093 248.433H47.4068C25.5703 215.584 12.5833 163.782 12.5833 109.225C12.5833 102.582 12.7675 96.118 13.1273 89.95H183.326C183.42 91.5777 183.514 93.2053 183.583 94.8716C183.634 96.0024 183.694 97.1117 183.728 98.2597C183.844 101.853 183.917 105.503 183.917 109.225C183.941 126.842 182.571 144.433 179.817 161.833ZM188.997 158.483C189.228 156.877 189.399 155.241 189.609 153.626C189.836 151.853 190.076 150.092 190.277 148.306C190.569 145.736 190.808 143.11 191.044 140.498C191.194 138.806 191.365 137.122 191.472 135.422C191.691 132.522 191.836 129.605 191.982 126.684C192.051 125.249 192.153 123.827 192.209 122.401C192.392 118.02 192.483 113.628 192.483 109.225C192.483 105.443 192.406 101.742 192.295 98.0883C192.256 96.9704 192.201 95.8867 192.158 94.7816C192.093 93.2396 192.051 91.6676 191.965 90.1556C210.781 92.1881 224.386 109.089 222.353 127.904C220.503 145.034 206.222 158.125 188.997 158.483Z" fill="#1B1B1B"/>
</svg>
