<svg width="234" height="257" viewBox="0 0 234 257" fill="none" xmlns="http://www.w3.org/2000/svg">
<path d="M23 207H177L156.341 252L43.3902 250.684L23 207Z" fill="#B39173"/>
<path d="M97.7918 54.3041C93.7569 57.1054 88.24 60.939 88.24 68.5333C88.24 70.8988 90.1579 72.8167 92.5233 72.8167C94.8888 72.8167 96.8067 70.8988 96.8067 68.5333C96.8067 65.6978 98.52 64.25 102.675 61.3416C106.71 58.5403 112.227 54.7067 112.227 47.1124C112.227 39.518 106.71 35.6844 102.675 32.8831C98.52 29.9833 96.8067 28.5227 96.8067 25.7C96.8067 22.8773 98.52 21.4167 102.675 18.5126C106.705 15.707 112.227 11.8777 112.227 4.28333C112.227 1.91786 110.309 0 107.943 0C105.578 0 103.66 1.91786 103.66 4.28333C103.66 7.11462 101.947 8.56667 97.7918 11.4708C93.7569 14.2678 88.24 18.0971 88.24 25.7C88.24 33.3029 93.7569 37.1279 97.7918 39.9249C101.947 42.8333 103.66 44.2768 103.66 47.1167C103.66 49.9565 101.947 51.4 97.7918 54.3041Z" fill="#1B1B1B"/>
<path d="M132.063 56.4543C127.435 58.7706 124.384 63.3692 124.049 68.5333C124.049 70.8988 125.966 72.8167 128.332 72.8167C130.697 72.8167 132.615 70.8988 132.615 68.5333C132.615 66.6701 133.802 65.6721 136.941 63.4961C141.573 61.1756 144.623 56.5695 144.951 51.4C144.62 46.2338 141.57 41.6313 136.941 39.3124C133.802 37.1279 132.615 36.1256 132.615 34.2581C132.615 32.3906 133.802 31.3883 136.941 29.2038C141.565 26.8876 144.614 22.2937 144.951 17.1333C144.951 14.7679 143.033 12.85 140.668 12.85C138.302 12.85 136.385 14.7679 136.385 17.1333C136.385 19.0052 135.198 20.0032 132.058 22.1877C127.432 24.505 124.383 29.1031 124.049 34.2667C124.379 39.4345 127.429 44.0386 132.058 46.3585C135.198 48.5387 136.385 49.541 136.385 51.4086C136.385 53.2761 135.198 54.2784 132.063 56.4543Z" fill="#1B1B1B"/>
<path d="M63.5295 56.4543C58.9019 58.7706 55.8511 63.3692 55.5154 68.5333C55.5154 70.8988 57.4332 72.8167 59.7987 72.8167C62.1642 72.8167 64.082 70.8988 64.082 68.5333C64.082 66.6701 65.2685 65.6721 68.4082 63.4961C73.0396 61.1756 76.0893 56.5695 76.418 51.4C76.0866 46.2338 73.0369 41.6313 68.4082 39.3124C65.2685 37.1279 64.082 36.1256 64.082 34.2581C64.082 32.3906 65.2685 31.3883 68.4082 29.2038C73.0321 26.8876 76.0807 22.2937 76.418 17.1333C76.418 14.7679 74.5002 12.85 72.1347 12.85C69.7692 12.85 67.8514 14.7679 67.8514 17.1333C67.8514 19.0052 66.6649 20.0032 63.5252 22.1877C58.8992 24.505 55.85 29.1031 55.5154 34.2667C55.8457 39.4345 58.8955 44.0386 63.5252 46.3585C66.6649 48.5387 67.8514 49.541 67.8514 51.4086C67.8514 53.2761 66.6649 54.2784 63.5295 56.4543Z" fill="#1B1B1B"/>
<path d="M190.183 81.3833H11.0972C8.84842 81.3775 6.97821 83.1111 6.81383 85.354C6.27842 92.9012 6 100.932 6 109.225C6 167.341 19.7067 220.527 43.5905 255.15C44.391 256.309 45.7108 257.002 47.12 257H153.347C154.756 257.002 156.076 256.309 156.876 255.15C172.078 233.133 183.587 201.921 189.567 167.011C189.772 167.011 189.973 167.05 190.183 167.05C213.84 167.05 233.017 147.873 233.017 124.217C233.017 100.56 213.84 81.3833 190.183 81.3833ZM181.801 161.833C176.378 196.095 165.498 226.73 151.076 248.433H49.3902C27.5537 215.584 14.5667 163.782 14.5667 109.225C14.5667 102.582 14.7508 96.118 15.1106 89.95H185.309C185.403 91.5777 185.497 93.2053 185.566 94.8716C185.617 96.0024 185.677 97.1117 185.712 98.2597C185.827 101.853 185.9 105.503 185.9 109.225C185.925 126.842 184.554 144.433 181.801 161.833ZM190.98 158.483C191.211 156.877 191.383 155.241 191.593 153.626C191.82 151.853 192.059 150.092 192.261 148.306C192.552 145.736 192.792 143.11 193.027 140.498C193.177 138.806 193.349 137.122 193.456 135.422C193.674 132.522 193.82 129.605 193.966 126.684C194.034 125.249 194.137 123.827 194.193 122.401C194.375 118.02 194.467 113.628 194.467 109.225C194.467 105.443 194.39 101.742 194.278 98.0883C194.24 96.9704 194.184 95.8867 194.141 94.7816C194.077 93.2396 194.034 91.6676 193.948 90.1556C212.764 92.1881 226.369 109.089 224.336 127.904C222.486 145.034 208.205 158.125 190.98 158.483Z" fill="#1B1B1B"/>
</svg>
