<svg width="228" height="257" viewBox="0 0 228 257" fill="none" xmlns="http://www.w3.org/2000/svg">
<path d="M3.5 94H185L173.5 198L150.341 252L37.3902 250.684L16 196L3.5 94Z" fill="#AA8B74"/>
<path d="M91.7918 54.3041C87.7569 57.1054 82.24 60.939 82.24 68.5333C82.24 70.8988 84.1579 72.8167 86.5233 72.8167C88.8888 72.8167 90.8067 70.8988 90.8067 68.5333C90.8067 65.6978 92.52 64.25 96.6748 61.3416C100.71 58.5403 106.227 54.7067 106.227 47.1124C106.227 39.518 100.71 35.6844 96.6748 32.8831C92.52 29.9833 90.8067 28.5227 90.8067 25.7C90.8067 22.8773 92.52 21.4167 96.6748 18.5126C100.705 15.707 106.227 11.8777 106.227 4.28333C106.227 1.91786 104.309 0 101.943 0C99.5778 0 97.66 1.91786 97.66 4.28333C97.66 7.11462 95.9467 8.56667 91.7918 11.4708C87.7569 14.2678 82.24 18.0971 82.24 25.7C82.24 33.3029 87.7569 37.1279 91.7918 39.925C95.9467 42.8333 97.66 44.2768 97.66 47.1167C97.66 49.9565 95.9467 51.4 91.7918 54.3041Z" fill="#1B1B1B"/>
<path d="M126.063 56.4544C121.435 58.7706 118.384 63.3693 118.049 68.5334C118.049 70.8989 119.967 72.8168 122.332 72.8168C124.698 72.8168 126.615 70.8989 126.615 68.5334C126.615 66.6702 127.802 65.6722 130.942 63.4962C135.573 61.1757 138.623 56.5695 138.951 51.4001C138.62 46.2339 135.57 41.6314 130.942 39.3125C127.802 37.128 126.615 36.1257 126.615 34.2582C126.615 32.3907 127.802 31.3884 130.942 29.2039C135.565 26.8877 138.614 22.2938 138.951 17.1334C138.951 14.768 137.034 12.8501 134.668 12.8501C132.303 12.8501 130.385 14.768 130.385 17.1334C130.385 19.0052 129.198 20.0033 126.059 22.1878C121.433 24.505 118.383 29.1032 118.049 34.2668C118.379 39.4346 121.429 44.0387 126.059 46.3586C129.198 48.5388 130.385 49.5411 130.385 51.4087C130.385 53.2762 129.198 54.2785 126.063 56.4544Z" fill="#1B1B1B"/>
<path d="M57.5295 56.4544C52.9019 58.7706 49.8511 63.3693 49.5154 68.5334C49.5154 70.8989 51.4332 72.8168 53.7987 72.8168C56.1642 72.8168 58.082 70.8989 58.082 68.5334C58.082 66.6702 59.2685 65.6722 62.4082 63.4962C67.0396 61.1757 70.0893 56.5695 70.418 51.4001C70.0866 46.2339 67.0369 41.6314 62.4082 39.3125C59.2685 37.128 58.082 36.1257 58.082 34.2582C58.082 32.3907 59.2685 31.3884 62.4082 29.2039C67.0321 26.8877 70.0807 22.2938 70.418 17.1334C70.418 14.768 68.5002 12.8501 66.1347 12.8501C63.7692 12.8501 61.8514 14.768 61.8514 17.1334C61.8514 19.0052 60.6649 20.0033 57.5252 22.1878C52.8992 24.505 49.85 29.1032 49.5154 34.2668C49.8457 39.4346 52.8955 44.0387 57.5252 46.3586C60.6649 48.5388 61.8514 49.5411 61.8514 51.4087C61.8514 53.2762 60.6649 54.2785 57.5295 56.4544Z" fill="#1B1B1B"/>
<path d="M184.183 81.3833H5.09717C2.84842 81.3774 0.978206 83.1111 0.813834 85.354C0.278417 92.9012 0 100.932 0 109.225C0 167.341 13.7067 220.527 37.5905 255.15C38.391 256.309 39.7108 257.002 41.12 257H147.347C148.756 257.002 150.076 256.309 150.876 255.15C166.078 233.133 177.587 201.921 183.567 167.011C183.772 167.011 183.973 167.05 184.183 167.05C207.84 167.05 227.017 147.873 227.017 124.217C227.017 100.56 207.84 81.3833 184.183 81.3833ZM175.801 161.833C170.378 196.095 159.498 226.73 145.076 248.433H43.3902C21.5537 215.584 8.56667 163.782 8.56667 109.225C8.56667 102.582 8.75085 96.118 9.11065 89.95H179.309C179.403 91.5776 179.497 93.2053 179.566 94.8715C179.617 96.0023 179.677 97.1117 179.712 98.2597C179.827 101.853 179.9 105.503 179.9 109.225C179.925 126.842 178.554 144.433 175.801 161.833ZM184.98 158.483C185.211 156.877 185.383 155.241 185.593 153.626C185.82 151.853 186.059 150.092 186.261 148.306C186.552 145.736 186.792 143.11 187.027 140.498C187.177 138.806 187.349 137.122 187.456 135.422C187.674 132.522 187.82 129.605 187.966 126.684C188.034 125.249 188.137 123.827 188.193 122.401C188.375 118.02 188.467 113.628 188.467 109.225C188.467 105.443 188.39 101.742 188.278 98.0883C188.24 96.9704 188.184 95.8867 188.141 94.7816C188.077 93.2396 188.034 91.6676 187.948 90.1556C206.764 92.188 220.369 109.089 218.336 127.904C216.486 145.034 202.205 158.125 184.98 158.483Z" fill="#1B1B1B"/>
</svg>
