<svg width="735" height="1919" viewBox="0 0 735 1919" fill="none" xmlns="http://www.w3.org/2000/svg">
<path d="M370 -8.82745e-05C370 1.79271 370 3.58551 370 5.67531C373.116 5.91981 376.316 7.31421 376.423 2.31571C376.776 4.36361 377.129 6.41151 377.573 8.98891C375.082 9.24181 372.851 9.46831 370.248 9.73251C370.122 11.2284 369.899 12.6563 369.898 14.0845C369.875 35.9148 369.687 57.7486 370.071 79.5721C370.136 83.2752 372.901 86.8723 374.02 90.6369C374.702 92.9339 375.063 95.5104 374.78 97.8666C374.374 101.253 376.987 105.544 372.186 107.928C371.853 108.094 372.012 110.276 372.579 111.061C375.819 115.55 375.812 124.328 372.695 128.525C372.059 129.382 372.105 131.543 372.757 132.419C375.654 136.311 375.783 146.032 372.904 149.618C372.225 150.464 371.995 152.962 372.221 153.053C376.72 154.865 374.177 158.742 374.913 161.609C375.293 163.087 375.522 165.325 376.512 165.813C388.55 171.75 395.041 182.13 399.747 194.033C400.236 195.27 400.757 196.495 401.424 198.114C404.439 198.114 407.542 198.114 410.929 198.114C410.929 203.292 410.929 208.056 410.929 212.543C408.874 213.508 406.972 214.4 405.07 215.293C406.558 216.192 408.047 217.091 410.243 218.418C410.243 223.027 410.243 228.582 410.243 234.465C408.659 234.703 407.086 234.939 405.499 235.177C403.904 239.285 406.507 239.241 409.2 239.191C411.689 239.145 414.179 239.181 417.401 239.181C418.071 248.692 418.724 257.98 419.247 265.411C415.139 269.017 411.941 271.078 409.724 273.908C402.568 283.045 400.567 294.17 399.193 305.24C398.215 313.123 398.058 321.184 398.347 329.136C400.862 398.235 403.216 467.344 406.295 536.419C409.746 613.816 413.521 691.202 417.874 768.552C421.263 828.758 425.443 888.925 429.858 949.067C433.125 993.581 436.551 1038.11 441.355 1082.48C445.726 1122.85 452.039 1163.01 457.524 1203.26C458.31 1209.02 459.253 1214.76 460.193 1220.98C467.545 1220.98 474.811 1220.98 481.958 1220.98C482.759 1225.28 483.61 1229.07 484.067 1232.91C484.17 1233.76 482.973 1235.53 482.237 1235.61C477.849 1236.09 475.771 1239.1 474.621 1242.65C471.213 1253.16 469.208 1263.84 472.002 1274.91C488 1338.32 503.428 1401.87 520.192 1465.07C527.002 1490.74 536.735 1515.64 545 1540.93C545.935 1543.79 547.542 1544.27 550.155 1544.24C558.943 1544.12 567.734 1544.2 576.505 1544.2C576.505 1559.53 576.505 1574.25 576.505 1589.31C579.835 1589.62 582.822 1589.91 586.122 1590.22C579.102 1599.5 575.633 1615.63 578.724 1624.16C577.769 1624.71 576.759 1625.29 575.547 1625.99C586.5 1648.48 597.342 1670.77 608.209 1693.05C639.81 1757.83 671.433 1822.6 702.993 1887.4C704.812 1891.14 707.171 1893.56 711.182 1895.41C717.332 1898.24 722.841 1902.46 728.623 1906.09C727.164 1912.69 732.253 1915.46 736 1919C734.667 1919.33 733.334 1919.96 732 1919.96C683 1920.01 634 1920 585 1920C586.119 1915.96 588.201 1911.92 584.237 1908.08C583.66 1907.52 583.853 1905.23 584.52 1904.47C587.774 1900.81 589.052 1896.6 589.059 1891.82C589.104 1860.79 578.706 1832.82 564.179 1805.99C533.305 1748.97 461.099 1698.54 388.49 1693.58C327.782 1689.43 273.914 1705.06 226.372 1742.89C184.861 1775.93 158.208 1818.1 148.724 1870.49C146.623 1882.09 143.377 1894.43 152.056 1905.33C152.498 1905.89 152.353 1907.64 151.829 1908.11C147.653 1911.87 150.104 1915.97 151 1920C102 1920 53 1920.01 4.0001 1919.96C2.6664 1919.96 1.3333 1919.33 0 1919C3.6146 1915.57 8.4598 1912.85 7.3925 1905.72C13.7645 1902.14 20.7969 1898.42 27.5322 1894.23C29.6349 1892.92 31.4183 1890.56 32.5329 1888.28C62.461 1827.12 92.2838 1765.91 122.122 1704.7C133.503 1681.35 144.86 1658 156.276 1634.67C157.701 1631.76 158.668 1629.22 157.951 1625.58C157.026 1620.89 158.297 1615.81 157.829 1610.98C157.129 1603.75 155.802 1596.57 149.424 1590.29C153.076 1589.96 156.004 1589.69 159.428 1589.38C159.428 1574.49 159.428 1559.76 159.428 1544.19C166.787 1544.19 174.202 1544.19 181.617 1544.19C189.819 1544.19 189.588 1544.1 192.601 1536.48C212.809 1485.37 224.672 1431.86 237.961 1378.77C246.81 1343.41 255.936 1308.13 264.452 1272.69C267.026 1261.98 265.075 1251.15 260.61 1241.1C259.588 1238.8 256.226 1237.6 254.085 1235.72C253.161 1234.91 251.899 1233.61 252.004 1232.66C252.418 1228.98 253.316 1225.34 254.144 1221.14C261.073 1221.14 268.324 1221.14 275.867 1221.14C278.577 1202.93 281.559 1185.23 283.793 1167.42C289.203 1124.3 294.786 1081.19 299.295 1037.97C302.665 1005.68 304.583 973.221 306.938 940.821C309.97 899.113 313.005 857.403 315.636 815.668C317.733 782.41 319.287 749.118 320.977 715.836C323.579 664.579 326.173 613.322 328.616 562.058C330.829 515.618 333.046 469.177 334.861 422.721C336.24 387.421 337.322 352.102 337.853 316.781C338.058 303.086 335.38 289.56 328.593 277.326C326.124 272.877 323.382 268.299 316.657 267.401C317.313 258.2 317.966 249.033 318.626 239.768C322.932 239.233 326.906 238.772 330.851 238.128C331.003 238.104 330.871 236.332 330.871 235.136C329.166 234.965 327.719 234.819 325.855 234.631C325.855 229.011 325.855 223.455 325.855 218.132C327.641 217.162 329.306 216.257 330.971 215.352C329.236 214.499 327.501 213.646 325.205 212.517C325.205 208.327 325.205 203.451 325.205 198.179C328.446 198.179 331.551 198.179 334.711 198.179C338.459 187.928 342.898 178.465 351.176 171.404C351.936 170.755 352.56 169.8 353.432 169.455C359.521 167.041 362.565 162.979 361.296 156.173C361.175 155.525 362.718 154.703 363.035 153.803C363.468 152.569 364.093 150.787 363.549 149.927C360.171 144.587 360.179 138.084 363.714 132.1C364.209 131.262 364.215 129.624 363.717 128.793C360.202 122.922 360.135 116.045 363.545 111.007C364.088 110.205 364.268 108.19 363.776 107.803C358.093 103.329 362.171 97.3595 361.425 92.1918C361.136 90.1905 363.543 87.9313 364.15 85.6383C365.081 82.1183 366.046 78.4724 366.079 74.8714C366.263 55.04 366.168 35.206 366.168 15.3729C366.168 13.584 366.168 11.7952 366.168 9.78881C363.529 9.53621 361.42 9.33441 358.701 9.07421C359.002 6.77061 359.282 4.61981 359.476 3.12971C361.266 4.23631 363.121 5.38361 366 7.16351C366 3.58231 366 1.79091 366 -0.000488281C367.333 -8.82813e-05 368.667 -8.82745e-05 370 -8.82745e-05ZM323.441 1327.04C311.519 1399.77 300.779 1472.16 285.266 1543.81C340.377 1543.81 395.863 1543.81 450.474 1543.81C437.6 1471.44 424.767 1399.3 411.913 1327.04C382.658 1327.04 353.224 1327.04 323.441 1327.04Z" fill="#F3F4F6"/>
</svg>
